<svg viewBox="0 0 60.24 95.83"><path class="a" d="M13.69 79.41h-2.73v2.74h2.73v-2.74h2.74v-2.74h-2.74v2.74zM16.43 73.93h2.74v2.74h-2.74zM8.22 84.89v10.94h5.47V93.1h-2.73V82.15H8.22v2.74zM43.81 10.95V8.21h-2.73v8.22h2.73v-5.48zM16.43 13.69V8.21h-2.74v8.22h2.74v-2.74zM27.38 8.21V5.48h-2.74v8.21h2.74V8.21zM21.91 13.69v-2.74h-2.74v5.48h2.74v-2.74zM21.91 0h2.74v5.48h-2.74zM30.12 2.74V0h-2.74v5.48h2.74V2.74zM38.34 2.74h2.74v5.47h-2.74zM43.81 5.48h2.74v2.74h-2.74zM52.03 68.46v2.74h2.74v-5.48h-2.74v2.74zM43.81 16.43h5.48v2.74h-5.48zM35.6 16.43h-5.48v2.74h8.22v-2.74H35.6z"/><path class="a" d="M27.38 13.69h2.74v2.74h-2.74zM19.17 19.17h2.74v2.74h-2.74zM16.43 16.43h2.74v2.74h-2.74zM49.29 71.2h2.74v2.74h-2.74z"/><path class="a" d="M57.51 62.98v-2.74h-8.22v-5.48h2.72V43.84h-2.74v-2.77h-2.74V35.6h-2.74v-2.76h8.22v-2.72h2.74v-2.74h-2.74v-2.74h-5.48V21.9h-2.74v-2.73h-5.48v2.74h-16.4v2.73H35.6v2.74h-2.74v2.74h2.74v13.72h-2.74v2.74h-5.47v2.73h-8.22v2.74h-2.74v2.74h-2.74v-2.77h-2.73v-5.47H8.22v11h2.74v13.69H8.22v2.74H5.48v2.74H2.74v8.12H.01v11h5.48v-2.73H2.74v-5.48h2.74v-5.48h2.74v-2.74h2.74v-2.74h2.74v-2.74h2.74v-2.74h2.74v-2.73h2.73v-2.74h2.74v-2.74h-2.74v-2.74h2.74v2.74h2.74v2.74h5.48v-2.74h5.48v-2.74h-2.74V57.5h2.74v2.74h2.74v2.74h13.69v2.74h2.74v11h-2.74v2.73h2.74v-2.73h2.74V62.98h-2.75zM41.08 24.64h2.74v2.74h-2.74v-2.74z"/></svg>