<svg viewBox="0 0 60.24 95.83">
    <polygon class="a" points="13.69 79.41 10.96 79.41 10.96 82.15 13.69 82.15 13.69 79.41 16.43 79.41 16.43 76.67 13.69 76.67 13.69 79.41"/>
    <rect class="a" x="16.43" y="73.93" width="2.74" height="2.74"/>
    <polygon class="a" points="8.22 84.89 8.22 95.83 13.69 95.83 13.69 93.1 10.96 93.1 10.96 82.15 8.22 82.15 8.22 84.89"/>
    <polygon class="a" points="43.81 10.95 43.81 8.21 41.08 8.21 41.08 16.43 43.81 16.43 43.81 10.95"/>
    <polygon class="a" points="16.43 13.69 16.43 8.21 13.69 8.21 13.69 16.43 16.43 16.43 16.43 13.69"/>
    <polygon class="a" points="27.38 8.21 27.38 5.48 24.64 5.48 24.64 13.69 27.38 13.69 27.38 8.21"/>
    <polygon class="a" points="21.91 13.69 21.91 10.95 19.17 10.95 19.17 16.43 21.91 16.43 21.91 13.69"/>
    <rect class="a" x="21.91" width="2.74" height="5.48"/>
    <polygon class="a" points="30.12 2.74 30.12 0 27.38 0 27.38 5.48 30.12 5.48 30.12 2.74"/>
    <rect class="a" x="38.34" y="2.74" width="2.74" height="5.47"/>
    <rect class="a" x="43.81" y="5.48" width="2.74" height="2.74"/>
    <polygon class="a" points="52.03 68.46 52.03 71.2 54.77 71.2 54.77 65.72 52.03 65.72 52.03 68.46"/>
    <rect class="a" x="43.81" y="16.43" width="5.48" height="2.74"/>
    <polygon class="a" points="35.6 16.43 30.12 16.43 30.12 19.17 38.34 19.17 38.34 16.43 35.6 16.43"/>
    <rect class="a" x="27.38" y="13.69" width="2.74" height="2.74"/>
    <rect class="a" x="19.17" y="19.17" width="2.74" height="2.74"/>
    <rect class="a" x="16.43" y="16.43" width="2.74" height="2.74"/>
    <rect class="a" x="49.29" y="71.2" width="2.74" height="2.74"/>
    <path class="a" d="M127.5,94.14V91.4h-8.22V85.92H122V75h-2.74V72.23h-2.74V66.76h-2.74V64H122V61.28h2.74V58.54H122V55.8h-5.48V53.06h-2.74V50.33h-5.48v2.74H91.9V55.8h13.69v2.74h-2.74v2.74h2.74V75h-2.74v2.74H97.38v2.73H89.16v2.74H86.42v2.74H83.68V83.18H80.95V77.71H78.21v11h2.74v13.69H78.21v2.74H75.47v2.74H72.73V116H70V127h5.48v-2.73H72.73v-5.48h2.74v-5.48h2.74v-2.74h2.74v-2.74h2.74v-2.74h2.74v-2.74h2.74V99.62H91.9V96.88h2.74V94.14H91.9V91.4h2.74v2.74h2.74v2.74h5.48V94.14h5.48V91.4h-2.74V88.66h2.74V91.4h2.74v2.74h13.69v2.74h2.74v11h-2.74v2.73h2.74v-2.73h2.74V94.14H127.5ZM111.07,55.8h2.74v2.74h-2.74V55.8Z" transform="translate(-69.99 -31.16)"/>
</svg>
