<?xml version="1.0" encoding="utf-8"?>
<!-- Generator: Adobe Illustrator 19.0.0, SVG Export Plug-In . SVG Version: 6.00 Build 0)  -->
<svg version="1.1" id="Слой_1" xmlns="http://www.w3.org/2000/svg" xmlns:xlink="http://www.w3.org/1999/xlink" x="0px" y="0px"
	 viewBox="-275 349.2 60.2 95.8" style="enable-background:new -275 349.2 60.2 95.8;" xml:space="preserve">
<g>
	<polygon points="-261.3,428.6 -264,428.6 -264,431.3 -261.3,431.3 -261.3,428.6 -258.6,428.6 -258.6,425.8 -261.3,425.8 	"/>
	<rect x="-258.6" y="423.1" width="2.7" height="2.7"/>
	<polygon points="-266.8,434.1 -266.8,445 -261.3,445 -261.3,442.3 -264,442.3 -264,431.3 -266.8,431.3 	"/>
	<polygon points="-231.2,360.1 -231.2,357.4 -233.9,357.4 -233.9,365.6 -231.2,365.6 	"/>
	<polygon points="-258.6,362.9 -258.6,357.4 -261.3,357.4 -261.3,365.6 -258.6,365.6 	"/>
	<polygon points="-247.6,357.4 -247.6,354.6 -250.4,354.6 -250.4,362.9 -247.6,362.9 	"/>
	<polygon points="-253.1,362.9 -253.1,360.1 -255.8,360.1 -255.8,365.6 -253.1,365.6 	"/>
	<rect x="-253.1" y="349.2" width="2.7" height="5.5"/>
	<polygon points="-244.9,351.9 -244.9,349.2 -247.6,349.2 -247.6,354.6 -244.9,354.6 	"/>
	<rect x="-236.7" y="351.9" width="2.7" height="5.5"/>
	<rect x="-231.2" y="354.6" width="2.7" height="2.7"/>
	<polygon points="-223,417.6 -223,420.4 -220.2,420.4 -220.2,414.9 -223,414.9 	"/>
	<rect x="-231.2" y="365.6" width="5.5" height="2.7"/>
	<polygon points="-239.4,365.6 -244.9,365.6 -244.9,368.3 -236.7,368.3 -236.7,365.6 	"/>
	<rect x="-247.6" y="362.9" width="2.7" height="2.7"/>
	<rect x="-255.8" y="368.3" width="2.7" height="2.7"/>
	<rect x="-258.6" y="365.6" width="2.7" height="2.7"/>
	<rect x="-225.7" y="420.4" width="2.7" height="2.7"/>
	<path d="M-217.5,412.1v-2.7h-8.2v-5.5h2.7V393h-2.7v-2.8h-2.7v-5.5h-2.7V382h8.2v-2.7h2.7v-2.7h-2.7v-2.7h-5.5v-2.7h-2.7v-2.7h-5.5
		v2.7h-16.4v2.7h13.7v2.7h-2.7v2.7h2.7V393h-2.7v2.7h-5.5v2.7h-8.2v2.7h-2.7v2.7h-2.7v-2.8h-2.7v-5.5h-2.7v11h2.7v13.7h-2.7v2.7
		h-2.7v2.7h-2.7v8.1h-2.7v11h5.5v-2.7h-2.8v-5.5h2.7v-5.5h2.7v-2.7h2.7v-2.7h2.7v-2.7h2.7v-2.7h2.7v-2.7h2.7v-2.7h2.7v-2.7h-2.7
		v-2.7h2.7v2.7h2.7v2.7h5.5v-2.7h5.5v-2.7h-2.7v-2.7h2.7v2.7h2.7v2.7h13.7v2.7h2.7v11h-2.7v2.7h2.7v-2.7h2.7v-13.7H-217.5z
		 M-233.9,373.8h2.7v2.7h-2.7V373.8z"/>
</g>
</svg>
