<svg viewBox="0 0 61.47 13.09">
    <path class="a" d="M73,148a2.89,2.89,0,0,1-3-3.08,0.58,0.58,0,0,1,.18-0.44,0.63,0.63,0,0,1,.45-0.17,0.57,0.57,0,0,1,.42.17,0.6,0.6,0,0,1,.17.44,2.29,2.29,0,0,0,.17.94,1.45,1.45,0,0,0,.43.57,1.54,1.54,0,0,0,.58.28,2.72,2.72,0,0,0,.64.08,4,4,0,0,0,.5,0,1.65,1.65,0,0,0,.64-0.24,1.75,1.75,0,0,0,.55-0.56,1.9,1.9,0,0,0,.24-1,3.23,3.23,0,0,0-.18-1.13,2.92,2.92,0,0,0-.51-0.87,4.73,4.73,0,0,0-.74-0.71l-0.89-.65q-0.42-.29-0.85-0.63a5.35,5.35,0,0,1-.78-0.73,3.38,3.38,0,0,1-.84-2.22s0-.14,0-0.28a3.63,3.63,0,0,1,.06-0.49,2.88,2.88,0,0,1,.7-1.48,2.78,2.78,0,0,1,2.11-.82,2.64,2.64,0,0,1,2.07.82,2.39,2.39,0,0,1,.42.68,2.76,2.76,0,0,1,.19.84,3.52,3.52,0,0,1,0,.53,1,1,0,0,1,0,.25,2.61,2.61,0,0,1-.12.4,1,1,0,0,1-.21.24,0.44,0.44,0,0,1-.37.07,0.48,0.48,0,0,1-.35-0.18,0.83,0.83,0,0,1-.14-0.3,0.93,0.93,0,0,1,0-.4,1.61,1.61,0,0,0,0-.47,4,4,0,0,0-.1-0.43,1.2,1.2,0,0,0-.23-0.43,1.42,1.42,0,0,0-1.15-.42,1.53,1.53,0,0,0-1.2.45,1.29,1.29,0,0,0-.29.44,2.39,2.39,0,0,0-.13.44,1.63,1.63,0,0,0,0,.47V138a2.09,2.09,0,0,0,.14.78,2.29,2.29,0,0,0,.39.64,4.45,4.45,0,0,0,.61.59q0.36,0.29.81,0.62t1,0.71a5.82,5.82,0,0,1,.9.88,4.18,4.18,0,0,1,.94,2.74,3.29,3.29,0,0,1-.27,1.39,2.74,2.74,0,0,1-.72,1,3,3,0,0,1-1,.56A3.73,3.73,0,0,1,73,148" transform="translate(-69.94 -134.94)"/><path class="a" d="M85.19,147.75v0a0.37,0.37,0,0,1-.12.09,0,0,0,0,1,0,0l0,0h0l0,0h0l-0.12.05H84.63l-0.05,0h0a0.4,0.4,0,0,1-.14-0.07l0,0,0,0,0,0h0l0,0v0h0v0s0,0,0,0,0,0,0,0h0s0,0,0,0v0l0,0a0,0,0,0,0,0,0,0,0,0,0,1,0,0l-1.48-4.48-1.48,4.48a0.07,0.07,0,0,0,0,.05h0s0,0,0,0v0l0,0a0,0,0,0,0,0,0,0,0,0,0,0,0,0l0,0,0,0,0,0,0,0h0l-0.07.05a0.26,0.26,0,0,1-.12.07H80.73l0,0H80.47l-0.12-.05h0v0h0l0,0a0,0,0,0,1,0,0h0l-0.09-.07v0h0a0,0,0,0,0,0,0,0,0,0,0,0,0,0v0l0,0,0,0-0.05-.1v0a0,0,0,0,1,0,0v-0.05a0.07,0.07,0,0,1,0-.05l-1.45-11.73a0.56,0.56,0,0,1,.12-0.44,0.62,0.62,0,0,1,.42-0.23,0.57,0.57,0,0,1,.44.12,0.6,0.6,0,0,1,.24.4l1.12,9,1.2-3.66,0,0v0a0,0,0,0,1,0,0v0l0,0v0l0,0,0,0a0,0,0,0,1,0,0v0h0v0l0,0a0,0,0,0,0,0,0h0v0l0,0a0.14,0.14,0,0,1,.08,0,0.16,0.16,0,0,0,.08,0h0l0,0h0.07v0h0.19l0,0h0.12l0.07,0,0.07,0,0,0a0,0,0,0,1,0,0h0v0h0v0a0,0,0,0,1,0,0h0v0l0,0,0,0a0,0,0,0,0,0,0v0h0v0a0,0,0,0,1,0,0l0,0v0l1.22,3.66,1.12-9a0.6,0.6,0,0,1,.23-0.4,0.56,0.56,0,0,1,.44-0.12,0.64,0.64,0,0,1,.41.23,0.55,0.55,0,0,1,.13.44l-1.45,11.73a0.07,0.07,0,0,0,0,.05v0l0,0v0a0.05,0.05,0,0,1,0,0,0.1,0.1,0,0,1,0,.07,0.05,0.05,0,0,1,0,0v0h0v0l0,0v0h0Z" transform="translate(-69.94 -134.94)"/><path class="a" d="M96,146.9a0.61,0.61,0,0,1,.18.45,0.59,0.59,0,0,1-.18.43,0.6,0.6,0,0,1-.44.18H90.93a0.61,0.61,0,0,1-.45-0.18,0.59,0.59,0,0,1-.18-0.43V135.6a0.59,0.59,0,0,1,.18-0.43,0.61,0.61,0,0,1,.45-0.18h4.62a0.6,0.6,0,0,1,.44.18,0.59,0.59,0,0,1,.18.43,0.63,0.63,0,0,1-.63.63h-4v5.35h3a0.57,0.57,0,0,1,.44.19,0.62,0.62,0,0,1,.17.44,0.6,0.6,0,0,1-.17.43,0.58,0.58,0,0,1-.44.18h-3v3.9h4a0.6,0.6,0,0,1,.44.18" transform="translate(-69.94 -134.94)"/><path class="a" d="M104.81,146.9a0.61,0.61,0,0,1,.18.45,0.58,0.58,0,0,1-.18.43,0.61,0.61,0,0,1-.45.18H99.75a0.6,0.6,0,0,1-.44-0.18,0.59,0.59,0,0,1-.18-0.43V135.6a0.59,0.59,0,0,1,.18-0.43,0.6,0.6,0,0,1,.44-0.18h4.62a0.61,0.61,0,0,1,.45.18,0.59,0.59,0,0,1,.18.43,0.6,0.6,0,0,1-.18.44,0.61,0.61,0,0,1-.45.18h-4v5.35h3a0.58,0.58,0,0,1,.44.19,0.62,0.62,0,0,1,.17.44,0.6,0.6,0,0,1-.17.43,0.58,0.58,0,0,1-.44.18h-3v3.9h4a0.61,0.61,0,0,1,.45.18" transform="translate(-69.94 -134.94)"/><path class="a" d="M113.48,135.17a0.6,0.6,0,0,1,.18.44,0.63,0.63,0,0,1-.61.61h-2.11v11.12a0.6,0.6,0,0,1-.61.61,0.6,0.6,0,0,1-.43-0.18,0.57,0.57,0,0,1-.18-0.43V136.23h-2.15a0.6,0.6,0,0,1-.44-0.18,0.58,0.58,0,0,1-.18-0.43,0.63,0.63,0,0,1,.63-0.63H113a0.59,0.59,0,0,1,.43.18" transform="translate(-69.94 -134.94)"/><path class="a" d="M121.91,146.9a0.61,0.61,0,0,1,.18.45,0.58,0.58,0,0,1-.18.43,0.6,0.6,0,0,1-.44.18h-4.62a0.6,0.6,0,0,1-.45-0.18,0.58,0.58,0,0,1-.18-0.43V135.6a0.58,0.58,0,0,1,.18-0.43,0.6,0.6,0,0,1,.45-0.18h4.62a0.61,0.61,0,0,1,.44.18,0.59,0.59,0,0,1,.18.43,0.63,0.63,0,0,1-.63.63h-4v5.35h3a0.58,0.58,0,0,1,.44.19,0.62,0.62,0,0,1,.17.44,0.6,0.6,0,0,1-.17.43,0.58,0.58,0,0,1-.44.18h-3v3.9h4a0.61,0.61,0,0,1,.44.18" transform="translate(-69.94 -134.94)"/><path class="a" d="M131.35,147.11a0.62,0.62,0,0,1,0,.48,0.52,0.52,0,0,1-.33.32l-0.13,0h-0.11a0.66,0.66,0,0,1-.34-0.09,0.59,0.59,0,0,1-.23-0.28l-2.09-4.79h-1.81v4.55a0.57,0.57,0,0,1-.18.43,0.62,0.62,0,0,1-.44.18,0.59,0.59,0,0,1-.43-0.18,0.58,0.58,0,0,1-.19-0.43V135.62a0.61,0.61,0,0,1,.19-0.44,0.58,0.58,0,0,1,.43-0.18h2.6a1.93,1.93,0,0,1,1.07.34,3.3,3.3,0,0,1,.92,1,4.77,4.77,0,0,1,.54,1.24,5.08,5.08,0,0,1,.19,1.38,5.14,5.14,0,0,1-.19,1.39,4.78,4.78,0,0,1-.54,1.24,3,3,0,0,1-.94,1Zm-5-5.53h2a0.81,0.81,0,0,0,.48-0.19,2,2,0,0,0,.46-0.52,3.41,3.41,0,0,0,.41-0.91,3.77,3.77,0,0,0,.15-1.05,3.72,3.72,0,0,0-.15-1,3.45,3.45,0,0,0-.41-0.92,1.77,1.77,0,0,0-.46-0.53,0.82,0.82,0,0,0-.48-0.18h-2v5.35Z" transform="translate(-69.94 -134.94)"></path>
</svg>
