<svg viewBox="0 0 61.47 13.09"><path class="a" d="M3.06 13.06a2.89 2.89 0 0 1-3-3.08.58.58 0 0 1 .18-.44.63.63 0 0 1 .45-.17.57.57 0 0 1 .42.17.6.6 0 0 1 .17.44 2.29 2.29 0 0 0 .17.94 1.45 1.45 0 0 0 .43.57 1.54 1.54 0 0 0 .58.28 2.72 2.72 0 0 0 .64.08 4 4 0 0 0 .5 0 1.65 1.65 0 0 0 .64-.24 1.75 1.75 0 0 0 .55-.56 1.9 1.9 0 0 0 .24-1 3.23 3.23 0 0 0-.18-1.13 2.92 2.92 0 0 0-.51-.87 4.73 4.73 0 0 0-.74-.71l-.89-.65q-.42-.29-.85-.63a5.35 5.35 0 0 1-.78-.73 3.38 3.38 0 0 1-.84-2.22v-.28a3.63 3.63 0 0 1 .06-.49A2.88 2.88 0 0 1 1 .86 2.78 2.78 0 0 1 3.11.04a2.64 2.64 0 0 1 2.07.82 2.39 2.39 0 0 1 .42.68 2.76 2.76 0 0 1 .19.84 3.52 3.52 0 0 1 0 .53 1 1 0 0 1 0 .25 2.61 2.61 0 0 1-.12.4 1 1 0 0 1-.21.24.44.44 0 0 1-.37.07.48.48 0 0 1-.35-.18.83.83 0 0 1-.14-.3.93.93 0 0 1 0-.4 1.61 1.61 0 0 0 0-.47 4 4 0 0 0-.1-.43 1.2 1.2 0 0 0-.23-.43 1.42 1.42 0 0 0-1.15-.42 1.53 1.53 0 0 0-1.2.45 1.29 1.29 0 0 0-.29.44 2.39 2.39 0 0 0-.13.44 1.63 1.63 0 0 0 0 .47v.02a2.09 2.09 0 0 0 .14.78 2.29 2.29 0 0 0 .39.64 4.45 4.45 0 0 0 .61.59q.36.29.81.62t1 .71a5.82 5.82 0 0 1 .9.88 4.18 4.18 0 0 1 .94 2.74 3.29 3.29 0 0 1-.27 1.39 2.74 2.74 0 0 1-.72 1 3 3 0 0 1-1 .56 3.73 3.73 0 0 1-1.24.09M15.25 12.81a.37.37 0 0 1-.12.09l-.12.05h-.37a.4.4 0 0 1-.14-.07L13.02 8.4l-1.48 4.48a.07.07 0 0 0 0 .05l-.07.05a.26.26 0 0 1-.12.07H10.53l-.12-.05-.09-.07-.05-.1v-.05a.07.07 0 0 1 0-.05L8.82 1a.56.56 0 0 1 .12-.44.62.62 0 0 1 .42-.23.57.57 0 0 1 .44.12.6.6 0 0 1 .24.4l1.12 9 1.2-3.66a.14.14 0 0 1 .08 0 .16.16 0 0 0 .08 0h.52l1.22 3.66 1.12-9a.6.6 0 0 1 .23-.4.56.56 0 0 1 .44-.12.64.64 0 0 1 .41.23.55.55 0 0 1 .13.44l-1.45 11.73a.07.07 0 0 0 0 .05.1.1 0 0 1 0 .07zM26.06 11.96a.61.61 0 0 1 .18.45.59.59 0 0 1-.18.43.6.6 0 0 1-.44.18h-4.63a.61.61 0 0 1-.45-.18.59.59 0 0 1-.18-.43V.66a.59.59 0 0 1 .18-.43.61.61 0 0 1 .45-.18h4.62a.6.6 0 0 1 .44.18.59.59 0 0 1 .18.43.63.63 0 0 1-.63.63h-4v5.35h3a.57.57 0 0 1 .44.19.62.62 0 0 1 .17.44.6.6 0 0 1-.17.43.58.58 0 0 1-.44.18h-3v3.9h4a.6.6 0 0 1 .44.18M34.87 11.96a.61.61 0 0 1 .18.45.58.58 0 0 1-.18.43.61.61 0 0 1-.45.18h-4.61a.6.6 0 0 1-.44-.18.59.59 0 0 1-.18-.43V.66a.59.59 0 0 1 .18-.43.6.6 0 0 1 .44-.18h4.62a.61.61 0 0 1 .45.18.59.59 0 0 1 .18.43.6.6 0 0 1-.18.44.61.61 0 0 1-.45.18h-4v5.35h3a.58.58 0 0 1 .44.19.62.62 0 0 1 .17.44.6.6 0 0 1-.17.43.58.58 0 0 1-.44.18h-3v3.9h4a.61.61 0 0 1 .45.18M43.54.23a.6.6 0 0 1 .18.44.63.63 0 0 1-.61.61H41V12.4a.6.6 0 0 1-.61.61.6.6 0 0 1-.43-.18.57.57 0 0 1-.18-.43V1.29h-2.15a.6.6 0 0 1-.44-.18.58.58 0 0 1-.18-.43.63.63 0 0 1 .63-.63h5.42a.59.59 0 0 1 .43.18M51.97 11.96a.61.61 0 0 1 .18.45.58.58 0 0 1-.18.43.6.6 0 0 1-.44.18h-4.62a.6.6 0 0 1-.45-.18.58.58 0 0 1-.18-.43V.66a.58.58 0 0 1 .18-.43.6.6 0 0 1 .45-.18h4.62a.61.61 0 0 1 .44.18.59.59 0 0 1 .18.43.63.63 0 0 1-.63.63h-4v5.35h3a.58.58 0 0 1 .44.19.62.62 0 0 1 .17.44.6.6 0 0 1-.17.43.58.58 0 0 1-.44.18h-3v3.9h4a.61.61 0 0 1 .44.18M61.41 12.17a.62.62 0 0 1 0 .48.52.52 0 0 1-.33.32h-.24a.66.66 0 0 1-.34-.09.59.59 0 0 1-.23-.28l-2.09-4.79h-1.81v4.55a.57.57 0 0 1-.18.43.62.62 0 0 1-.44.18.59.59 0 0 1-.43-.18.58.58 0 0 1-.19-.43V.68a.61.61 0 0 1 .19-.44.58.58 0 0 1 .43-.18h2.6a1.93 1.93 0 0 1 1.07.34 3.3 3.3 0 0 1 .92 1 4.77 4.77 0 0 1 .54 1.24 5.08 5.08 0 0 1 .19 1.38 5.14 5.14 0 0 1-.19 1.39 4.78 4.78 0 0 1-.54 1.24 3 3 0 0 1-.94 1zm-5-5.53h2a.81.81 0 0 0 .48-.19 2 2 0 0 0 .46-.52 3.41 3.41 0 0 0 .41-.91 3.77 3.77 0 0 0 .15-1.05 3.72 3.72 0 0 0-.15-1 3.45 3.45 0 0 0-.41-.92 1.77 1.77 0 0 0-.46-.53.82.82 0 0 0-.48-.18h-2v5.35z"/></svg>